<svg xmlns="http://www.w3.org/2000/svg" viewBox="0 0 120 120">
  <defs>
    <linearGradient id="g" x1="0" y1="0" x2="120" y2="120" gradientUnits="userSpaceOnUse">
      <stop offset="0" stop-color="#8B5CF6"/>
      <stop offset="1" stop-color="#5B21B6"/>
    </linearGradient>
  </defs>
  <circle cx="60" cy="60" r="60" fill="url(#g)"/>
  <circle cx="60" cy="34" r="16" fill="white" opacity="0.95"/>
  <path d="M 38,32 C 32,32 28,38 28,46 C 28,54 32,60 38,60 L 44,58 C 40,54 38,48 40,40 Z" fill="white" opacity="0.85"/>
  <path d="M 82,32 C 88,32 92,38 92,46 C 92,54 88,60 82,60 L 76,58 C 80,54 82,48 80,40 Z" fill="white" opacity="0.85"/>
  <path d="M 42,50 L 42,54 C 32,56 22,62 18,74 L 14,100 L 106,100 L 102,74 C 98,62 88,56 78,54 L 78,50 Z" fill="white" opacity="0.9"/>
</svg>